<?xml version="1.0"?>
<svg xmlns="http://www.w3.org/2000/svg" xmlns:xlink="http://www.w3.org/1999/xlink" xmlns:svgjs="http://svgjs.com/svgjs" version="1.1" width="512" height="512" x="0" y="0" viewBox="0 0 511.537 511.537" style="enable-background:new 0 0 512 512" xml:space="preserve" class=""><g><g xmlns="http://www.w3.org/2000/svg"><path d="m394.107 238.011 61.01 105.67h-398.34l114.12-197.65 47.27 81.87 59.45-102.96c-21.47-37.99-33.92-80.52-36.26-124.94-219.682 12.379-322.256 280.967-166.428 436.611 155.639 155.839 424.271 53.208 436.608-166.431-41.51-2.18-81.38-13.21-117.43-32.17zm-94.31 201.47h-87.7v-30h87.7z" fill="#4e5150" data-original="#000000" style="" class=""/><path d="m324.717 186.821c-10.54-10.54-20.16-21.76-28.81-33.57l-92.63 160.43h199.87l-66.98-116.02c-3.9-3.49-7.72-7.11-11.45-10.84z" fill="#4e5150" data-original="#000000" style="" class=""/><path d="m108.747 313.681h59.89l32.21-55.78-29.95-51.87z" fill="#4e5150" data-original="#000000" style="" class=""/><path d="m295.407 94.121c38.416 82.773 124.712 141.72 216.08 146.01l-240.08-240.08c1.899 32.567 10.1 64.793 24 94.07z" fill="#4e5150" data-original="#000000" style="" class=""/></g></g></svg>
